<svg data-v-fde0c5aa="" xmlns="http://www.w3.org/2000/svg" viewBox="0 0 300 300" class="iconAbove"><!----><defs data-v-fde0c5aa=""><!----></defs><rect data-v-fde0c5aa="" fill="transparent" x="0" y="0" width="300px" height="300px" class="logo-background-square"></rect><defs data-v-fde0c5aa=""><!----></defs><g data-v-fde0c5aa="" id="92418c19-f2f4-4b8e-aaaa-76a6eb259804" fill="#000000" transform="matrix(2.7088975922735012,0,0,2.7088975922735012,18.672640153951924,169.84913581291562)"><path d="M5.52 13.71L5.52 13.71Q4.03 13.71 2.89 13.08L2.89 13.08L2.89 13.08Q1.75 12.45 1.12 11.29L1.12 11.29L1.12 11.29Q0.49 10.14 0.49 8.61L0.49 8.61L0.49 8.61Q0.49 7.10 1.14 5.94L1.14 5.94L1.14 5.94Q1.79 4.79 2.95 4.15L2.95 4.15L2.95 4.15Q4.10 3.51 5.57 3.51L5.57 3.51L5.57 3.51Q6.99 3.51 8.11 4.09L8.11 4.09L7.91 5.80L7.91 5.80Q7.31 5.53 6.75 5.38L6.75 5.38L6.75 5.38Q6.20 5.24 5.56 5.24L5.56 5.24L5.56 5.24Q4.06 5.24 3.25 6.16L3.25 6.16L3.25 6.16Q2.45 7.08 2.45 8.61L2.45 8.61L2.45 8.61Q2.45 10.14 3.24 11.06L3.24 11.06L3.24 11.06Q4.03 11.98 5.52 11.98L5.52 11.98L5.52 11.98Q6.17 11.98 6.73 11.84L6.73 11.84L6.73 11.84Q7.28 11.70 7.91 11.42L7.91 11.42L8.11 13.13L8.11 13.13Q6.89 13.71 5.52 13.71L5.52 13.71ZM12.52 13.65L12.52 13.65Q11.41 13.65 10.60 13.16L10.60 13.16L10.60 13.16Q9.79 12.67 9.35 11.84L9.35 11.84L9.35 11.84Q8.92 11.02 8.92 10.02L8.92 10.02L8.92 10.02Q8.92 9.03 9.35 8.19L9.35 8.19L9.35 8.19Q9.79 7.35 10.60 6.86L10.60 6.86L10.60 6.86Q11.41 6.37 12.52 6.37L12.52 6.37L12.52 6.37Q13.62 6.37 14.43 6.86L14.43 6.86L14.43 6.86Q15.25 7.35 15.68 8.19L15.68 8.19L15.68 8.19Q16.11 9.03 16.11 10.02L16.11 10.02L16.11 10.02Q16.11 11.02 15.68 11.84L15.68 11.84L15.68 11.84Q15.25 12.67 14.43 13.16L14.43 13.16L14.43 13.16Q13.62 13.65 12.52 13.65L12.52 13.65ZM12.52 12.22L12.52 12.22Q13.37 12.22 13.85 11.62L13.85 11.62L13.85 11.62Q14.34 11.02 14.34 10.02L14.34 10.02L14.34 10.02Q14.34 9.02 13.85 8.41L13.85 8.41L13.85 8.41Q13.37 7.80 12.52 7.80L12.52 7.80L12.52 7.80Q11.66 7.80 11.18 8.41L11.18 8.41L11.18 8.41Q10.70 9.02 10.70 10.02L10.70 10.02L10.70 10.02Q10.70 11.02 11.18 11.62L11.18 11.62L11.18 11.62Q11.66 12.22 12.52 12.22L12.52 12.22ZM21.97 3.01L23.70 3.01L23.70 13.51L22.06 13.51L22.04 13.06L22.04 13.06Q21.63 13.36 21.19 13.50L21.19 13.50L21.19 13.50Q20.75 13.65 20.15 13.65L20.15 13.65L20.15 13.65Q19.12 13.65 18.39 13.16L18.39 13.16L18.39 13.16Q17.65 12.67 17.28 11.84L17.28 11.84L17.28 11.84Q16.90 11.02 16.90 10.02L16.90 10.02L16.90 10.02Q16.90 9.03 17.28 8.20L17.28 8.20L17.28 8.20Q17.65 7.38 18.39 6.89L18.39 6.89L18.39 6.89Q19.12 6.40 20.15 6.40L20.15 6.40L20.15 6.40Q21.17 6.40 21.97 6.96L21.97 6.96L21.97 3.01ZM20.40 12.22L20.40 12.22Q21.22 12.22 21.64 11.63L21.64 11.63L21.64 11.63Q22.05 11.05 22.05 10.02L22.05 10.02L22.05 10.02Q22.05 9.00 21.64 8.41L21.64 8.41L21.64 8.41Q21.22 7.83 20.40 7.83L20.40 7.83L20.40 7.83Q19.59 7.83 19.13 8.43L19.13 8.43L19.13 8.43Q18.68 9.03 18.68 10.02L18.68 10.02L18.68 10.02Q18.68 11.02 19.13 11.62L19.13 11.62L19.13 11.62Q19.59 12.22 20.40 12.22L20.40 12.22ZM25.31 5.45L25.31 3.71L27.05 3.71L27.05 5.45L25.31 5.45ZM25.31 13.51L25.31 6.51L27.05 6.51L27.05 13.51L25.31 13.51ZM32.20 6.40L32.20 6.40Q33.50 6.40 34.17 7.27L34.17 7.27L34.17 7.27Q34.85 8.13 34.85 9.60L34.85 9.60L34.85 13.51L33.11 13.51L33.11 9.74L33.11 9.74Q33.11 8.76 32.78 8.29L32.78 8.29L32.78 8.29Q32.45 7.83 31.72 7.83L31.72 7.83L31.72 7.83Q30.93 7.83 30.41 8.43L30.41 8.43L30.41 13.51L28.67 13.51L28.67 6.51L30.30 6.51L30.32 7L30.32 7Q31.21 6.40 32.20 6.40L32.20 6.40ZM39.17 17.04L39.17 17.04Q37.69 17.04 36.81 16.50L36.81 16.50L36.81 16.50Q35.92 15.96 35.92 15.04L35.92 15.04L35.92 15.04Q35.92 14.03 37.06 13.38L37.06 13.38L37.06 13.38Q36.44 13.01 36.44 12.39L36.44 12.39L36.44 12.39Q36.44 12.07 36.63 11.82L36.63 11.82L36.63 11.82Q36.82 11.56 37.14 11.41L37.14 11.41L37.14 11.41Q36.61 11.03 36.34 10.44L36.34 10.44L36.34 10.44Q36.06 9.86 36.06 9.16L36.06 9.16L36.06 9.16Q36.06 8.39 36.40 7.75L36.40 7.75L36.40 7.75Q36.74 7.11 37.38 6.74L37.38 6.74L37.38 6.74Q38.02 6.37 38.91 6.37L38.91 6.37L38.91 6.37Q39.83 6.37 40.50 6.82L40.50 6.82L40.50 6.82Q40.74 6.69 41.14 6.60L41.14 6.60L41.14 6.60Q41.54 6.51 42 6.51L42 6.51L42.45 6.51L42.34 7.60L41.71 7.60L41.71 7.60Q41.47 7.60 41.31 7.62L41.31 7.62L41.31 7.62Q41.73 8.26 41.73 9.16L41.73 9.16L41.73 9.16Q41.73 9.93 41.41 10.56L41.41 10.56L41.41 10.56Q41.08 11.20 40.43 11.57L40.43 11.57L40.43 11.57Q39.79 11.94 38.91 11.94L38.91 11.94L38.91 11.94Q38.58 11.94 38.16 11.84L38.16 11.84L38.16 11.84Q38.01 11.91 38.01 12.07L38.01 12.07L38.01 12.07Q38.01 12.25 38.23 12.36L38.23 12.36L38.23 12.36Q38.44 12.46 38.96 12.53L38.96 12.53L40.17 12.68L40.17 12.68Q42.57 13.01 42.57 14.71L42.57 14.71L42.57 14.71Q42.57 15.78 41.67 16.41L41.67 16.41L41.67 16.41Q40.77 17.04 39.17 17.04L39.17 17.04ZM38.91 10.65L38.91 10.65Q39.51 10.65 39.84 10.25L39.84 10.25L39.84 10.25Q40.17 9.86 40.17 9.16L40.17 9.16L40.17 9.16Q40.17 8.46 39.84 8.06L39.84 8.06L39.84 8.06Q39.51 7.66 38.91 7.66L38.91 7.66L38.91 7.66Q38.29 7.66 37.96 8.06L37.96 8.06L37.96 8.06Q37.63 8.46 37.63 9.16L37.63 9.16L37.63 9.16Q37.63 9.86 37.96 10.25L37.96 10.25L37.96 10.25Q38.29 10.65 38.91 10.65L38.91 10.65ZM39.24 15.72L39.24 15.72Q41.03 15.72 41.03 14.84L41.03 14.84L41.03 14.84Q41.03 14.45 40.73 14.26L40.73 14.26L40.73 14.26Q40.42 14.07 39.70 13.96L39.70 13.96L38.16 13.73L38.16 13.73Q37.37 14.06 37.37 14.71L37.37 14.71L37.37 14.71Q37.37 15.22 37.86 15.47L37.86 15.47L37.86 15.47Q38.35 15.72 39.24 15.72L39.24 15.72ZM48.73 13.51L48.73 5.45L45.96 5.45L45.96 3.71L53.30 3.71L53.30 5.45L50.53 5.45L50.53 13.51L48.73 13.51ZM57.85 6.40L57.85 6.40Q59.18 6.40 59.83 7.26L59.83 7.26L59.83 7.26Q60.48 8.12 60.48 9.62L60.48 9.62L60.48 13.51L58.74 13.51L58.74 9.74L58.74 9.74Q58.74 8.75 58.42 8.29L58.42 8.29L58.42 8.29Q58.10 7.83 57.40 7.83L57.40 7.83L57.40 7.83Q56.57 7.83 56.04 8.43L56.04 8.43L56.04 13.51L54.31 13.51L54.31 3.01L56.04 3.01L56.04 6.96L56.04 6.96Q56.46 6.69 56.90 6.54L56.90 6.54L56.90 6.54Q57.33 6.40 57.85 6.40L57.85 6.40ZM66.40 6.51L68.14 6.51L68.14 13.51L66.51 13.51L66.49 13.09L66.49 13.09Q66.16 13.33 65.74 13.49L65.74 13.49L65.74 13.49Q65.32 13.65 64.93 13.65L64.93 13.65L64.93 13.65Q63.38 13.65 62.67 12.75L62.67 12.75L62.67 12.75Q61.96 11.86 61.96 10.28L61.96 10.28L61.96 6.51L63.70 6.51L63.70 10.28L63.70 10.28Q63.70 11.26 64.03 11.72L64.03 11.72L64.03 11.72Q64.36 12.19 65.09 12.19L65.09 12.19L65.09 12.19Q65.90 12.19 66.40 11.61L66.40 11.61L66.40 6.51ZM73.29 6.40L73.29 6.40Q74.59 6.40 75.26 7.27L75.26 7.27L75.26 7.27Q75.94 8.13 75.94 9.60L75.94 9.60L75.94 13.51L74.20 13.51L74.20 9.74L74.20 9.74Q74.20 8.76 73.87 8.29L73.87 8.29L73.87 8.29Q73.54 7.83 72.81 7.83L72.81 7.83L72.81 7.83Q72.02 7.83 71.50 8.43L71.50 8.43L71.50 13.51L69.76 13.51L69.76 6.51L71.39 6.51L71.41 7L71.41 7Q72.30 6.40 73.29 6.40L73.29 6.40ZM82.14 3.01L83.87 3.01L83.87 13.51L82.24 13.51L82.21 13.06L82.21 13.06Q81.80 13.36 81.36 13.50L81.36 13.50L81.36 13.50Q80.92 13.65 80.32 13.65L80.32 13.65L80.32 13.65Q79.30 13.65 78.56 13.16L78.56 13.16L78.56 13.16Q77.83 12.67 77.45 11.84L77.45 11.84L77.45 11.84Q77.07 11.02 77.07 10.02L77.07 10.02L77.07 10.02Q77.07 9.03 77.45 8.20L77.45 8.20L77.45 8.20Q77.83 7.38 78.56 6.89L78.56 6.89L78.56 6.89Q79.30 6.40 80.32 6.40L80.32 6.40L80.32 6.40Q81.34 6.40 82.14 6.96L82.14 6.96L82.14 3.01ZM80.57 12.22L80.57 12.22Q81.40 12.22 81.81 11.63L81.81 11.63L81.81 11.63Q82.22 11.05 82.22 10.02L82.22 10.02L82.22 10.02Q82.22 9.00 81.81 8.41L81.81 8.41L81.81 8.41Q81.40 7.83 80.57 7.83L80.57 7.83L80.57 7.83Q79.76 7.83 79.30 8.43L79.30 8.43L79.30 8.43Q78.85 9.03 78.85 10.02L78.85 10.02L78.85 10.02Q78.85 11.02 79.30 11.62L79.30 11.62L79.30 11.62Q79.76 12.22 80.57 12.22L80.57 12.22ZM88.86 13.65L88.86 13.65Q87.64 13.65 86.78 13.15L86.78 13.15L86.78 13.15Q85.92 12.66 85.49 11.82L85.49 11.82L85.49 11.82Q85.06 10.99 85.06 9.97L85.06 9.97L85.06 9.97Q85.06 8.99 85.47 8.18L85.47 8.18L85.47 8.18Q85.88 7.36 86.65 6.88L86.65 6.88L86.65 6.88Q87.42 6.40 88.48 6.40L88.48 6.40L88.48 6.40Q89.46 6.40 90.14 6.80L90.14 6.80L90.14 6.80Q90.82 7.21 91.16 7.90L91.16 7.90L91.16 7.90Q91.50 8.58 91.50 9.44L91.50 9.44L91.50 9.44Q91.50 9.86 91.39 10.39L91.39 10.39L86.87 10.39L86.87 10.39Q87.01 11.31 87.60 11.77L87.60 11.77L87.60 11.77Q88.19 12.22 89.01 12.22L89.01 12.22L89.01 12.22Q90.15 12.22 91.11 11.65L91.11 11.65L91.20 13.12L91.20 13.12Q90.75 13.36 90.15 13.50L90.15 13.50L90.15 13.50Q89.56 13.65 88.86 13.65L88.86 13.65ZM86.91 9.21L89.74 9.21L89.74 9.21Q89.74 8.67 89.43 8.25L89.43 8.25L89.43 8.25Q89.12 7.83 88.48 7.83L88.48 7.83L88.48 7.83Q87.84 7.83 87.44 8.20L87.44 8.20L87.44 8.20Q87.05 8.58 86.91 9.21L86.91 9.21ZM92.69 13.51L92.69 6.51L94.32 6.51L94.36 7.25L94.36 7.25Q94.67 6.90 95.15 6.64L95.15 6.64L95.15 6.64Q95.63 6.37 96.17 6.37L96.17 6.37L96.17 6.37Q96.33 6.37 96.47 6.40L96.47 6.40L96.35 8.11L96.35 8.11Q96.08 8.04 95.75 8.04L95.75 8.04L95.75 8.04Q95.31 8.04 94.95 8.24L94.95 8.24L94.95 8.24Q94.58 8.44 94.43 8.74L94.43 8.74L94.43 13.51L92.69 13.51Z"></path></g><defs data-v-fde0c5aa=""><linearGradient data-v-fde0c5aa="" gradientTransform="rotate(25)" id="880a4900-61cb-4e0c-b89c-a71e1eb67a6d" x1="0%" y1="0%" x2="100%" y2="0%"><stop data-v-fde0c5aa="" offset="0%" stop-color="#4E1A70" stop-opacity="1"></stop><stop data-v-fde0c5aa="" offset="100%" stop-color="#2B4CF2" stop-opacity="1"></stop></linearGradient></defs><g data-v-fde0c5aa="" id="11b16d72-3a0c-42ab-ba34-eb8e41564758" stroke="none" fill="url(#880a4900-61cb-4e0c-b89c-a71e1eb67a6d)" transform="matrix(1.1480043453299358,0,0,1.1480043453299358,89.72977187017838,61.72684995106454)"><path d="M51.726 60.487l-4.633 4.634 1.115 1.115 4.635-4.636h8.938l12.197-12.2.006-.007.522-.522.021-.579.594-.032 4.013-4.014a7.16 7.16 0 0 0 .504-.562.772.772 0 0 0 .382-.52 7.127 7.127 0 0 0-.362-8.383l.034-.033-.555-.554-.003-.004a.018.018 0 0 1-.005-.004l-.553-.554-.034.033a7.052 7.052 0 0 0-4.435-1.557 7.074 7.074 0 0 0-5.03 2.081l-6.796 6.801-.002.001-3.757 3.76.027.491-.473-.05-1.992 1.991-.003.003-4.357 4.357v8.944zm9.402-.464H54.42l2.581-2.582 6.688.021-2.561 2.561zm2.525-11.463l-.023-6.687 4.517-4.518.021 6.688-4.515 4.517zm1.189 1.042l6.685.021-6.267 6.269-6.686-.021 6.268-6.269zm9.59-2.884l-1.425.08-.048 1.251-6.546-.021 3.099-3.098a.057.057 0 0 1 .011-.011l1.156-1.157 6.686.022-2.933 2.934zm4.325-4.506l-6.505-.021 6.28-6.281a5.539 5.539 0 0 1 .225 6.302zm-4.649-8.525a5.49 5.49 0 0 1 3.309 1.106l-7.676 7.678-.023-6.688.476-.476a5.502 5.502 0 0 1 3.914-1.62zM58.662 46.84l1.566.164-.091-1.636 1.921-1.922.021 6.686-4.624 4.625-.021-6.689 1.228-1.228zm-2.801 2.8l.023 6.689-2.582 2.581v-6.712l2.559-2.558zm-6.03 3.287h-25.26V51.35h25.26v1.577zm0 3.754h-25.26v-1.577h25.26v1.577zm0 3.758h-25.26v-1.577h25.26v1.577zm-4.893 3.754H24.571v-1.577h20.367v1.577zm51.476 14.433V23.718a4.325 4.325 0 0 0-4.324-4.324H12.908a4.324 4.324 0 0 0-4.322 4.324v54.908H2.5c0 4.286 3.475 6.98 7.76 6.98h84.479c4.284 0 7.761-2.694 7.761-6.98h-6.086zm-38.002 2.656H46.587a2.656 2.656 0 0 1-2.655-2.656h17.135a2.656 2.656 0 0 1-2.655 2.656zm32.598-7.807H13.989v-48.93H91.01v48.93z"></path></g><!----></svg>